<svg version="1.1" id="Layer_1" xmlns="http://www.w3.org/2000/svg" xmlns:xlink="http://www.w3.org/1999/xlink" x="0px" y="0px"
	 width="100%" viewBox="0 0 512 512" enable-background="new 0 0 512 512" xml:space="preserve">
<path fill="#015BAA" opacity="1.000000" stroke="none" 
	d="
M259.000000,513.000000 
	C257.933350,513.000000 256.866699,513.000000 255.612473,512.686096 
	C255.152344,511.954865 254.942993,511.474365 254.598129,511.129242 
	C230.571182,487.082489 206.568527,463.011108 182.405685,439.101593 
	C181.013260,437.723755 178.311768,437.096344 176.215637,437.088013 
	C144.888168,436.963257 113.560036,437.001648 82.232063,437.001587 
	C80.296829,437.001587 78.361595,437.001556 75.991547,437.001556 
	C75.991547,434.358734 75.991554,432.392456 75.991547,430.426208 
	C75.991539,399.264862 76.047256,368.103241 75.879822,336.942810 
	C75.867180,334.590851 74.906540,331.614502 73.306702,329.995331 
	C50.468952,306.881348 27.453506,283.942749 4.434614,261.008331 
	C3.525352,260.102417 2.155328,259.658936 0.999999,259.000000 
	C1.000000,257.611115 1.000000,256.222229 1.314030,254.628784 
	C2.401869,253.802780 3.241872,253.247574 3.939904,252.550262 
	C27.141212,229.372925 50.367592,206.220230 73.429955,182.905319 
	C74.935081,181.383698 75.874191,178.606369 75.885078,176.407242 
	C76.040916,144.944611 75.991547,113.480949 75.991600,82.017540 
	C75.991600,80.105034 75.991600,78.192520 75.991600,75.998344 
	C78.806793,75.998344 80.791611,75.998352 82.776436,75.998344 
	C113.906898,75.998299 145.037796,76.066299 176.166992,75.867371 
	C178.622986,75.851677 181.679337,74.600273 183.424072,72.877434 
	C206.166840,50.420078 228.733902,27.784613 251.294067,5.143028 
	C252.433929,3.999057 253.108673,2.391632 254.000000,0.999999 
	C255.714127,1.000000 257.428253,1.000000 259.359070,1.314038 
	C260.197235,2.401883 260.752441,3.241876 261.449738,3.939903 
	C284.627106,27.141207 307.779877,50.367527 331.094574,73.430122 
	C332.617096,74.936180 335.392975,75.880508 337.591766,75.891426 
	C369.054413,76.047729 400.518066,75.998283 431.981476,75.998383 
	C433.894745,75.998383 435.807983,75.998383 438.008453,75.998383 
	C438.008453,78.806343 438.008484,80.790894 438.008484,82.775444 
	C438.008484,113.905914 437.940582,145.036819 438.139038,176.166016 
	C438.154694,178.622330 439.400848,181.680115 441.122742,183.423920 
	C463.579895,206.166870 486.215424,228.733887 508.856995,251.294067 
	C510.001007,252.433929 511.608368,253.108688 513.000000,254.000000 
	C513.000000,255.388901 513.000000,256.777802 512.685974,258.371216 
	C511.128021,259.671661 509.820343,260.703796 508.649567,261.872986 
	C486.246674,284.245514 463.907593,306.682343 441.405487,328.954529 
	C438.781342,331.551849 437.929199,334.145874 437.942352,337.701416 
	C438.056854,368.695618 438.008423,399.690399 438.008423,430.685028 
	C438.008423,432.627716 438.008423,434.570435 438.008423,437.001556 
	C435.435455,437.001556 433.472321,437.001556 431.509155,437.001587 
	C400.347900,437.001648 369.186279,436.936005 338.026184,437.127075 
	C335.551147,437.142273 332.448120,438.288116 330.714325,439.999786 
	C307.471985,462.944733 284.411865,486.074432 261.355255,509.206848 
	C260.331787,510.233643 259.774445,511.725037 259.000000,513.000000 
M459.123444,287.623535 
	C469.106262,277.657654 479.089081,267.691742 489.773193,257.025757 
	C487.872864,255.542831 486.287384,254.549179 484.995575,253.261093 
	C464.697021,233.020447 444.488617,212.688980 424.104858,192.534805 
	C421.365143,189.825958 420.364136,187.095093 420.381744,183.332611 
	C420.509644,156.000900 420.458282,128.668304 420.434418,101.336014 
	C420.432587,99.262314 420.205109,97.188820 420.063232,94.788918 
	C417.459503,94.788918 415.478729,94.788918 413.497955,94.788910 
	C386.165649,94.788849 358.832947,94.721359 331.501434,94.869278 
	C327.853424,94.889015 325.344025,93.788307 322.795715,91.214638 
	C302.626892,70.845238 282.315857,50.616657 262.041443,30.351873 
	C260.641266,28.952358 259.184235,27.609747 256.754364,25.284391 
	C255.408005,27.169888 254.439865,29.007919 253.038925,30.415083 
	C232.932037,50.611485 212.712158,70.695801 192.677902,90.963684 
	C189.857712,93.816750 187.034821,94.896957 183.061661,94.873535 
	C155.730301,94.712410 128.397537,94.788940 101.065216,94.789001 
	C99.139366,94.789001 97.213509,94.788994 94.843956,94.788994 
	C94.843956,97.534775 94.843964,99.503334 94.843964,101.471893 
	C94.843948,128.304230 94.718941,155.137665 94.957214,181.967880 
	C95.000954,186.893311 93.460358,190.256607 90.004623,193.658127 
	C70.526100,212.830933 51.288387,232.248215 31.915352,251.528641 
	C30.033772,253.401230 27.788603,254.908493 25.490288,256.764557 
	C27.556440,258.933014 28.771969,260.261475 30.042831,261.534668 
	C50.058178,281.586914 70.016655,301.696716 90.165352,321.614136 
	C93.471031,324.881866 95.010170,328.083832 94.965485,332.874481 
	C94.713669,359.871124 94.843971,386.871338 94.844002,413.870331 
	C94.844009,415.818970 94.844002,417.767609 94.844002,420.356049 
	C97.415512,420.356049 99.362213,420.356049 101.308914,420.356049 
	C128.474564,420.356079 155.640961,420.455811 182.805130,420.255524 
	C187.200378,420.223145 190.220352,421.600555 193.228867,424.682739 
	C205.218384,436.966095 217.475906,448.987305 229.571976,461.167328 
	C238.809265,470.468719 247.952896,479.863098 257.863159,489.954285 
	C259.570221,487.816864 260.588837,486.262787 261.873810,484.974426 
	C282.234528,464.560242 302.665527,444.215973 322.968719,423.744904 
	C325.389404,421.304230 327.831177,420.273010 331.277222,420.288147 
	C358.942291,420.409882 386.609772,420.203674 414.272430,420.489532 
	C419.551331,420.544037 420.590637,418.843262 420.552795,413.981232 
	C420.339966,386.650574 420.524872,359.316986 420.367798,331.985596 
	C420.345001,328.017456 421.384705,325.158783 424.267426,322.352600 
	C435.850281,311.077332 447.192413,299.554779 459.123444,287.623535 
z"/>
<path fill="#000000" opacity="1.000000" stroke="none" 
	d="
M0.999999,259.468658 
	C2.155328,259.658936 3.525352,260.102417 4.434614,261.008331 
	C27.453506,283.942749 50.468952,306.881348 73.306702,329.995331 
	C74.906540,331.614502 75.867180,334.590851 75.879822,336.942810 
	C76.047256,368.103241 75.991539,399.264862 75.991547,430.426208 
	C75.991554,432.392456 75.991547,434.358734 75.991547,437.001556 
	C78.361595,437.001556 80.296829,437.001587 82.232063,437.001587 
	C113.560036,437.001648 144.888168,436.963257 176.215637,437.088013 
	C178.311768,437.096344 181.013260,437.723755 182.405685,439.101593 
	C206.568527,463.011108 230.571182,487.082489 254.598129,511.129242 
	C254.942993,511.474365 255.152344,511.954865 255.212463,512.686096 
	C170.406296,513.000000 85.812584,513.000000 1.000000,513.000000 
	C1.000000,428.645905 1.000000,344.291595 0.999999,259.468658 
z"/>
<path fill="#000000" opacity="1.000000" stroke="none" 
	d="
M259.468658,513.000000 
	C259.774445,511.725037 260.331787,510.233643 261.355255,509.206848 
	C284.411865,486.074432 307.471985,462.944733 330.714325,439.999786 
	C332.448120,438.288116 335.551147,437.142273 338.026184,437.127075 
	C369.186279,436.936005 400.347900,437.001648 431.509155,437.001587 
	C433.472321,437.001556 435.435455,437.001556 438.008423,437.001556 
	C438.008423,434.570435 438.008423,432.627716 438.008423,430.685028 
	C438.008423,399.690399 438.056854,368.695618 437.942352,337.701416 
	C437.929199,334.145874 438.781342,331.551849 441.405487,328.954529 
	C463.907593,306.682343 486.246674,284.245514 508.649567,261.872986 
	C509.820343,260.703796 511.128021,259.671661 512.685974,258.787872 
	C513.000000,343.593719 513.000000,428.187408 513.000000,513.000000 
	C428.645905,513.000000 344.291595,513.000000 259.468658,513.000000 
z"/>
<path fill="#000000" opacity="1.000000" stroke="none" 
	d="
M253.531342,0.999999 
	C253.108673,2.391632 252.433929,3.999057 251.294067,5.143028 
	C228.733902,27.784613 206.166840,50.420078 183.424072,72.877434 
	C181.679337,74.600273 178.622986,75.851677 176.166992,75.867371 
	C145.037796,76.066299 113.906898,75.998299 82.776436,75.998344 
	C80.791611,75.998352 78.806793,75.998344 75.991600,75.998344 
	C75.991600,78.192520 75.991600,80.105034 75.991600,82.017540 
	C75.991547,113.480949 76.040916,144.944611 75.885078,176.407242 
	C75.874191,178.606369 74.935081,181.383698 73.429955,182.905319 
	C50.367592,206.220230 27.141212,229.372925 3.939904,252.550262 
	C3.241872,253.247574 2.401869,253.802780 1.314030,254.212128 
	C1.000000,169.739624 1.000000,85.479248 1.000000,1.000000 
	C85.020767,1.000000 169.041733,1.000000 253.531342,0.999999 
z"/>
<path fill="#000000" opacity="1.000000" stroke="none" 
	d="
M513.000000,253.531342 
	C511.608368,253.108688 510.001007,252.433929 508.856995,251.294067 
	C486.215424,228.733887 463.579895,206.166870 441.122742,183.423920 
	C439.400848,181.680115 438.154694,178.622330 438.139038,176.166016 
	C437.940582,145.036819 438.008484,113.905914 438.008484,82.775444 
	C438.008484,80.790894 438.008453,78.806343 438.008453,75.998383 
	C435.807983,75.998383 433.894745,75.998383 431.981476,75.998383 
	C400.518066,75.998283 369.054413,76.047729 337.591766,75.891426 
	C335.392975,75.880508 332.617096,74.936180 331.094574,73.430122 
	C307.779877,50.367527 284.627106,27.141207 261.449738,3.939903 
	C260.752441,3.241876 260.197235,2.401883 259.787903,1.314038 
	C344.260376,1.000000 428.520752,1.000000 513.000000,1.000000 
	C513.000000,85.020767 513.000000,169.041733 513.000000,253.531342 
z"/>
<path fill="#8DC63F" opacity="1.000000" stroke="none" 
	d="
M458.873474,287.873596 
	C447.192413,299.554779 435.850281,311.077332 424.267426,322.352600 
	C421.384705,325.158783 420.345001,328.017456 420.367798,331.985596 
	C420.524872,359.316986 420.339966,386.650574 420.552795,413.981232 
	C420.590637,418.843262 419.551331,420.544037 414.272430,420.489532 
	C386.609772,420.203674 358.942291,420.409882 331.277222,420.288147 
	C327.831177,420.273010 325.389404,421.304230 322.968719,423.744904 
	C302.665527,444.215973 282.234528,464.560242 261.873810,484.974426 
	C260.588837,486.262787 259.570221,487.816864 257.863159,489.954285 
	C247.952896,479.863098 238.809265,470.468719 229.571976,461.167328 
	C217.475906,448.987305 205.218384,436.966095 193.228867,424.682739 
	C190.220352,421.600555 187.200378,420.223145 182.805130,420.255524 
	C155.640961,420.455811 128.474564,420.356079 101.308914,420.356049 
	C99.362213,420.356049 97.415512,420.356049 94.844002,420.356049 
	C94.844002,417.767609 94.844009,415.818970 94.844002,413.870331 
	C94.843971,386.871338 94.713669,359.871124 94.965485,332.874481 
	C95.010170,328.083832 93.471031,324.881866 90.165352,321.614136 
	C70.016655,301.696716 50.058178,281.586914 30.042831,261.534668 
	C28.771969,260.261475 27.556440,258.933014 25.490288,256.764557 
	C27.788603,254.908493 30.033772,253.401230 31.915352,251.528641 
	C51.288387,232.248215 70.526100,212.830933 90.004623,193.658127 
	C93.460358,190.256607 95.000954,186.893311 94.957214,181.967880 
	C94.718941,155.137665 94.843948,128.304230 94.843964,101.471893 
	C94.843964,99.503334 94.843956,97.534775 94.843956,94.788994 
	C97.213509,94.788994 99.139366,94.789001 101.065216,94.789001 
	C128.397537,94.788940 155.730301,94.712410 183.061661,94.873535 
	C187.034821,94.896957 189.857712,93.816750 192.677902,90.963684 
	C212.712158,70.695801 232.932037,50.611485 253.038925,30.415083 
	C254.439865,29.007919 255.408005,27.169888 256.754364,25.284391 
	C259.184235,27.609747 260.641266,28.952358 262.041443,30.351873 
	C282.315857,50.616657 302.626892,70.845238 322.795715,91.214638 
	C325.344025,93.788307 327.853424,94.889015 331.501434,94.869278 
	C358.832947,94.721359 386.165649,94.788849 413.497955,94.788910 
	C415.478729,94.788918 417.459503,94.788918 420.063232,94.788918 
	C420.205109,97.188820 420.432587,99.262314 420.434418,101.336014 
	C420.458282,128.668304 420.509644,156.000900 420.381744,183.332611 
	C420.364136,187.095093 421.365143,189.825958 424.104858,192.534805 
	C444.488617,212.688980 464.697021,233.020447 484.995575,253.261093 
	C486.287384,254.549179 487.872864,255.542831 489.773193,257.025757 
	C479.089081,267.691742 469.106262,277.657654 458.873474,287.873596 
M395.911743,341.500000 
	C395.911865,334.669617 396.085297,327.833038 395.841797,321.011353 
	C395.712433,317.387299 396.823944,314.788879 399.424622,312.226562 
	C414.498016,297.375366 429.374298,282.324310 444.393829,267.418060 
	C447.573730,264.262146 451.071564,261.426636 454.680817,258.213898 
	C452.626160,256.045288 451.421112,254.713211 450.153015,253.444077 
	C433.782806,237.060394 417.529053,220.556778 400.932495,204.405472 
	C397.103333,200.679077 395.750916,196.930298 395.807739,191.726257 
	C396.051636,169.401520 395.795349,147.071487 396.010162,124.746140 
	C396.052826,120.313293 394.742737,119.084930 390.364990,119.123711 
	C367.706116,119.324409 345.043030,119.079895 322.385101,119.327019 
	C317.615723,119.379036 314.354797,117.879616 311.070374,114.531685 
	C294.735077,97.880409 278.166779,81.457603 261.671814,64.963051 
	C260.395935,63.687176 259.052795,62.478550 256.677063,60.233219 
	C255.461533,62.025379 254.634781,63.765720 253.353653,65.054314 
	C236.554413,81.951241 219.641602,98.735558 202.896164,115.685318 
	C200.336685,118.276024 197.731842,119.307747 194.115356,119.286163 
	C171.122269,119.148972 148.127029,119.326599 125.134918,119.124649 
	C120.538055,119.084274 119.135124,120.495865 119.174622,125.082985 
	C119.372559,148.075165 119.198112,171.070389 119.333427,194.063477 
	C119.354706,197.678818 118.329567,200.294693 115.731697,202.849243 
	C102.188293,216.166824 88.837357,229.679901 75.372330,243.077576 
	C70.660355,247.765961 65.814026,252.319305 60.797741,257.157379 
	C62.558323,259.009460 63.773773,260.344818 65.048752,261.620697 
	C81.773277,278.356995 98.450706,295.141083 115.291367,311.759796 
	C118.114799,314.546021 119.376129,317.355408 119.346245,321.364166 
	C119.177345,344.023560 119.258476,366.684845 119.268967,389.345490 
	C119.271980,395.852997 119.294075,395.866180 125.963348,395.868073 
	C148.790619,395.874481 171.619247,395.754181 194.443359,396.022369 
	C197.216629,396.054932 200.638336,397.470795 202.620255,399.409943 
	C219.769211,416.188995 236.654892,433.237091 253.627319,450.196747 
	C254.877090,451.445557 256.191498,452.629730 258.313385,454.635681 
	C259.711945,452.797150 260.672394,451.189911 261.953827,449.902039 
	C278.759827,433.011841 295.532776,416.086670 312.556732,399.418121 
	C314.539612,397.476654 317.962463,396.054901 320.736786,396.022583 
	C343.727570,395.754608 366.725098,395.697815 389.714966,396.001160 
	C394.969086,396.070465 396.112244,394.395844 396.020355,389.485474 
	C395.727234,373.828461 395.911621,358.162506 395.911743,341.500000 
z"/>
<path fill="#FEF100" opacity="1.000000" stroke="none" 
	d="
M395.911652,342.000000 
	C395.911621,358.162506 395.727234,373.828461 396.020355,389.485474 
	C396.112244,394.395844 394.969086,396.070465 389.714966,396.001160 
	C366.725098,395.697815 343.727570,395.754608 320.736786,396.022583 
	C317.962463,396.054901 314.539612,397.476654 312.556732,399.418121 
	C295.532776,416.086670 278.759827,433.011841 261.953827,449.902039 
	C260.672394,451.189911 259.711945,452.797150 258.313385,454.635681 
	C256.191498,452.629730 254.877090,451.445557 253.627319,450.196747 
	C236.654892,433.237091 219.769211,416.188995 202.620255,399.409943 
	C200.638336,397.470795 197.216629,396.054932 194.443359,396.022369 
	C171.619247,395.754181 148.790619,395.874481 125.963348,395.868073 
	C119.294075,395.866180 119.271980,395.852997 119.268967,389.345490 
	C119.258476,366.684845 119.177345,344.023560 119.346245,321.364166 
	C119.376129,317.355408 118.114799,314.546021 115.291367,311.759796 
	C98.450706,295.141083 81.773277,278.356995 65.048752,261.620697 
	C63.773773,260.344818 62.558323,259.009460 60.797741,257.157379 
	C65.814026,252.319305 70.660355,247.765961 75.372330,243.077576 
	C88.837357,229.679901 102.188293,216.166824 115.731697,202.849243 
	C118.329567,200.294693 119.354706,197.678818 119.333427,194.063477 
	C119.198112,171.070389 119.372559,148.075165 119.174622,125.082985 
	C119.135124,120.495865 120.538055,119.084274 125.134918,119.124649 
	C148.127029,119.326599 171.122269,119.148972 194.115356,119.286163 
	C197.731842,119.307747 200.336685,118.276024 202.896164,115.685318 
	C219.641602,98.735558 236.554413,81.951241 253.353653,65.054314 
	C254.634781,63.765720 255.461533,62.025379 256.677063,60.233219 
	C259.052795,62.478550 260.395935,63.687176 261.671814,64.963051 
	C278.166779,81.457603 294.735077,97.880409 311.070374,114.531685 
	C314.354797,117.879616 317.615723,119.379036 322.385101,119.327019 
	C345.043030,119.079895 367.706116,119.324409 390.364990,119.123711 
	C394.742737,119.084930 396.052826,120.313293 396.010162,124.746140 
	C395.795349,147.071487 396.051636,169.401520 395.807739,191.726257 
	C395.750916,196.930298 397.103333,200.679077 400.932495,204.405472 
	C417.529053,220.556778 433.782806,237.060394 450.153015,253.444077 
	C451.421112,254.713211 452.626160,256.045288 454.680817,258.213898 
	C451.071564,261.426636 447.573730,264.262146 444.393829,267.418060 
	C429.374298,282.324310 414.498016,297.375366 399.424622,312.226562 
	C396.823944,314.788879 395.712433,317.387299 395.841797,321.011353 
	C396.085297,327.833038 395.911865,334.669617 395.911652,342.000000 
M207.980804,164.489792 
	C193.670013,177.183411 177.726349,188.476730 165.389359,202.862976 
	C139.934036,232.546616 132.775894,266.556641 148.910538,303.609283 
	C160.126984,329.367493 188.894470,341.257294 215.141418,331.284882 
	C216.659729,330.708008 218.197128,330.181335 220.275986,329.433258 
	C219.952835,331.348022 219.753021,332.786316 219.463699,334.206390 
	C216.889374,346.842438 217.188828,359.386597 221.044006,371.717072 
	C226.445602,388.993744 241.079239,398.785492 257.376587,396.082062 
	C267.184601,394.455109 273.478180,387.790375 278.816010,380.160828 
	C287.115875,368.297607 292.099792,354.912720 296.033020,341.092743 
	C296.975861,337.779968 297.941040,334.473572 298.927429,331.055145 
	C309.559998,336.102478 320.226349,336.833923 331.026947,334.344666 
	C349.021179,330.197418 360.289459,317.864563 366.747284,301.594208 
	C381.128662,265.360657 374.408997,231.829941 349.052307,203.115601 
	C336.733032,189.165054 321.347870,177.770065 306.627106,166.133484 
	C291.076721,153.841080 274.849243,142.430298 262.299011,126.798943 
	C260.663910,124.762451 258.984680,122.761398 257.820374,121.345337 
	C250.141037,129.046341 243.117844,136.962616 235.176392,143.814651 
	C226.751343,151.083954 217.454453,157.342819 207.980804,164.489792 
z"/>
<path fill="#262220" opacity="1.000000" stroke="none" 
	d="
M208.259552,164.266373 
	C217.454453,157.342819 226.751343,151.083954 235.176392,143.814651 
	C243.117844,136.962616 250.141037,129.046341 257.820374,121.345337 
	C258.984680,122.761398 260.663910,124.762451 262.299011,126.798943 
	C274.849243,142.430298 291.076721,153.841080 306.627106,166.133484 
	C321.347870,177.770065 336.733032,189.165054 349.052307,203.115601 
	C374.408997,231.829941 381.128662,265.360657 366.747284,301.594208 
	C360.289459,317.864563 349.021179,330.197418 331.026947,334.344666 
	C320.226349,336.833923 309.559998,336.102478 298.927429,331.055145 
	C297.941040,334.473572 296.975861,337.779968 296.033020,341.092743 
	C292.099792,354.912720 287.115875,368.297607 278.816010,380.160828 
	C273.478180,387.790375 267.184601,394.455109 257.376587,396.082062 
	C241.079239,398.785492 226.445602,388.993744 221.044006,371.717072 
	C217.188828,359.386597 216.889374,346.842438 219.463699,334.206390 
	C219.753021,332.786316 219.952835,331.348022 220.275986,329.433258 
	C218.197128,330.181335 216.659729,330.708008 215.141418,331.284882 
	C188.894470,341.257294 160.126984,329.367493 148.910538,303.609283 
	C132.775894,266.556641 139.934036,232.546616 165.389359,202.862976 
	C177.726349,188.476730 193.670013,177.183411 208.259552,164.266373 
M268.959045,191.781494 
	C268.973541,192.780670 269.029968,193.781281 268.996002,194.778809 
	C268.674011,204.240967 267.322357,213.176620 257.397736,217.841644 
	C256.806030,218.119781 256.174438,219.024963 256.139648,219.669525 
	C255.602188,229.634491 250.220551,236.265320 241.620544,240.556427 
	C255.798111,266.373840 251.125198,309.893005 224.108139,327.241119 
	C224.413757,333.831268 224.384903,340.457825 225.096680,347.003815 
	C226.455688,359.502655 232.708817,367.337494 242.395874,369.458038 
	C254.232956,372.049286 263.223419,368.015808 270.057648,356.657349 
	C272.182678,353.125549 273.803619,349.247955 275.303528,345.391846 
	C278.013977,338.423676 280.314697,331.294495 283.091339,324.354523 
	C284.119263,321.785461 283.514008,320.433136 281.887787,318.291687 
	C277.299194,312.249390 271.744019,306.311462 269.314453,299.371521 
	C260.237640,273.443787 262.831909,248.595261 281.085510,227.186142 
	C287.993835,219.083588 297.091248,212.833252 305.284180,205.848114 
	C308.087738,203.457886 311.176178,201.401764 314.527954,198.899185 
	C311.142273,196.323166 308.597412,194.451797 306.122467,192.492157 
	C297.248383,185.465759 288.052979,178.795807 279.624908,171.267975 
	C268.802551,161.601562 261.985535,149.321594 258.933899,135.047073 
	C258.506683,133.048706 257.974792,131.072708 257.491364,129.086365 
	C254.493515,138.132141 248.185913,144.228638 241.455322,149.878891 
	C231.889557,157.909271 221.971710,165.522247 212.455048,173.608673 
	C200.671753,183.621124 188.494141,193.293915 177.667709,204.277405 
	C163.235794,218.918732 154.886368,236.850754 153.592972,257.738770 
	C152.155258,280.957245 164.588943,300.798828 184.936844,307.419830 
	C202.670624,313.190277 222.776825,304.704773 231.779358,288.010498 
	C238.476593,275.591156 236.325348,252.643372 219.962418,241.742416 
	C217.054611,239.805237 214.115677,237.898560 211.353439,235.767441 
	C210.307434,234.960434 209.012146,233.543518 209.036423,232.430923 
	C209.219635,224.036346 209.703262,215.648315 210.170578,205.589569 
	C215.677994,209.274170 219.625259,212.228531 223.887054,214.623108 
	C225.783920,215.688873 228.554672,216.484558 230.518005,215.935074 
	C241.951859,212.735077 246.709625,204.418930 244.521057,192.662933 
	C244.187119,190.869156 244.699402,188.917831 244.820282,187.039383 
	C245.554337,186.895798 246.288376,186.752228 247.022415,186.608643 
	C248.658463,189.803757 250.294495,192.998886 252.772079,197.837524 
	C253.766388,196.154617 254.637161,194.548538 255.630646,193.022354 
	C259.700806,186.769775 259.623932,180.243668 257.276764,173.413101 
	C256.583405,171.395264 256.632477,169.122299 256.190216,165.846970 
	C263.673218,171.333664 266.567841,177.466537 268.959045,191.781494 
M352.153076,236.381836 
	C343.154144,221.757736 329.840881,211.497940 316.359039,200.693359 
	C314.653503,208.234589 309.602386,212.536102 303.819519,216.420044 
	C283.172943,230.286865 271.795898,248.557739 277.075836,274.399933 
	C279.216888,284.879242 283.867218,293.912079 292.128845,300.268982 
	C297.607056,291.907227 302.590546,283.685303 308.201172,275.916290 
	C313.415222,268.696472 320.419250,263.712494 329.516968,262.341064 
	C336.248138,261.326416 342.816620,264.074738 344.696472,269.317200 
	C347.499298,277.133514 345.172028,284.506470 342.173126,292.449005 
	C340.977356,291.187836 340.234406,290.711456 339.933289,290.037628 
	C337.725372,285.096436 333.865173,284.211487 329.169983,285.689362 
	C317.799896,289.268188 312.922180,298.774323 307.771667,308.433960 
	C325.340240,313.304596 344.502014,305.736145 353.087585,290.274109 
	C362.918152,272.569855 364.135834,254.633469 352.153076,236.381836 
z"/>
<path fill="#FDF000" opacity="1.000000" stroke="none" 
	d="
M268.925842,191.327972 
	C266.567841,177.466537 263.673218,171.333664 256.190216,165.846970 
	C256.632477,169.122299 256.583405,171.395264 257.276764,173.413101 
	C259.623932,180.243668 259.700806,186.769775 255.630646,193.022354 
	C254.637161,194.548538 253.766388,196.154617 252.772079,197.837524 
	C250.294495,192.998886 248.658463,189.803757 247.022415,186.608643 
	C246.288376,186.752228 245.554337,186.895798 244.820282,187.039383 
	C244.699402,188.917831 244.187119,190.869156 244.521057,192.662933 
	C246.709625,204.418930 241.951859,212.735077 230.518005,215.935074 
	C228.554672,216.484558 225.783920,215.688873 223.887054,214.623108 
	C219.625259,212.228531 215.677994,209.274170 210.170578,205.589569 
	C209.703262,215.648315 209.219635,224.036346 209.036423,232.430923 
	C209.012146,233.543518 210.307434,234.960434 211.353439,235.767441 
	C214.115677,237.898560 217.054611,239.805237 219.962418,241.742416 
	C236.325348,252.643372 238.476593,275.591156 231.779358,288.010498 
	C222.776825,304.704773 202.670624,313.190277 184.936844,307.419830 
	C164.588943,300.798828 152.155258,280.957245 153.592972,257.738770 
	C154.886368,236.850754 163.235794,218.918732 177.667709,204.277405 
	C188.494141,193.293915 200.671753,183.621124 212.455048,173.608673 
	C221.971710,165.522247 231.889557,157.909271 241.455322,149.878891 
	C248.185913,144.228638 254.493515,138.132141 257.491364,129.086365 
	C257.974792,131.072708 258.506683,133.048706 258.933899,135.047073 
	C261.985535,149.321594 268.802551,161.601562 279.624908,171.267975 
	C288.052979,178.795807 297.248383,185.465759 306.122467,192.492157 
	C308.597412,194.451797 311.142273,196.323166 314.527954,198.899185 
	C311.176178,201.401764 308.087738,203.457886 305.284180,205.848114 
	C297.091248,212.833252 287.993835,219.083588 281.085510,227.186142 
	C262.831909,248.595261 260.237640,273.443787 269.314453,299.371521 
	C271.744019,306.311462 277.299194,312.249390 281.887787,318.291687 
	C283.514008,320.433136 284.119263,321.785461 283.091339,324.354523 
	C280.314697,331.294495 278.013977,338.423676 275.303528,345.391846 
	C273.803619,349.247955 272.182678,353.125549 270.057648,356.657349 
	C263.223419,368.015808 254.232956,372.049286 242.395874,369.458038 
	C232.708817,367.337494 226.455688,359.502655 225.096680,347.003815 
	C224.384903,340.457825 224.413757,333.831268 224.109161,327.241058 
	C251.125198,309.893005 255.798111,266.373840 241.620544,240.556427 
	C250.220551,236.265320 255.602188,229.634491 256.139648,219.669525 
	C256.174438,219.024963 256.806030,218.119781 257.397736,217.841644 
	C267.322357,213.176620 268.674011,204.240967 268.996002,194.778809 
	C269.029968,193.781281 268.973541,192.780670 268.925842,191.327972 
z"/>
<path fill="#FCEF00" opacity="1.000000" stroke="none" 
	d="
M352.360229,236.682251 
	C364.135834,254.633469 362.918152,272.569855 353.087585,290.274109 
	C344.502014,305.736145 325.340240,313.304596 307.771667,308.433960 
	C312.922180,298.774323 317.799896,289.268188 329.169983,285.689362 
	C333.865173,284.211487 337.725372,285.096436 339.933289,290.037628 
	C340.234406,290.711456 340.977356,291.187836 342.173126,292.449005 
	C345.172028,284.506470 347.499298,277.133514 344.696472,269.317200 
	C342.816620,264.074738 336.248138,261.326416 329.516968,262.341064 
	C320.419250,263.712494 313.415222,268.696472 308.201172,275.916290 
	C302.590546,283.685303 297.607056,291.907227 292.128845,300.268982 
	C283.867218,293.912079 279.216888,284.879242 277.075836,274.399933 
	C271.795898,248.557739 283.172943,230.286865 303.819519,216.420044 
	C309.602386,212.536102 314.653503,208.234589 316.359039,200.693359 
	C329.840881,211.497940 343.154144,221.757736 352.360229,236.682251 
M320.800446,224.540848 
	C319.952057,224.611938 318.751556,224.344925 318.309021,224.805756 
	C313.129974,230.198975 308.064819,235.701569 302.791016,241.367142 
	C308.190643,246.015228 313.317902,250.428879 318.667297,255.033737 
	C324.248962,249.200592 329.633270,243.573761 335.177643,237.779587 
	C330.364777,233.348297 325.847046,229.188736 320.800446,224.540848 
z"/>
<path fill="#28231F" opacity="1.000000" stroke="none" 
	d="
M321.064880,224.785004 
	C325.847046,229.188736 330.364777,233.348297 335.177643,237.779587 
	C329.633270,243.573761 324.248962,249.200592 318.667297,255.033737 
	C313.317902,250.428879 308.190643,246.015228 302.791016,241.367142 
	C308.064819,235.701569 313.129974,230.198975 318.309021,224.805756 
	C318.751556,224.344925 319.952057,224.611938 321.064880,224.785004 
z"/>
</svg>